<svg xmlns="http://www.w3.org/2000/svg" width="230.075" height="35.949"><defs><linearGradient id="a" x2="1" y1=".5" y2=".5" gradientUnits="objectBoundingBox"><stop offset="0" stop-color="#fff100"/><stop offset=".498" stop-color="#fff10a"/><stop offset="1" stop-color="gold"/></linearGradient></defs><g data-name="TAC UNIVERSE"><g fill="#fff" data-name="Group 15"><path d="m30.131 35.917-.872-1.226a2.769 2.769 0 0 1-.305.016H27.93v1.21h-.4v-3.814h1.427a1.724 1.724 0 0 1 1.144.349 1.187 1.187 0 0 1 .414.959 1.24 1.24 0 0 1-.226.755 1.252 1.252 0 0 1-.646.444l.931 1.308Zm-.321-1.8a.983.983 0 0 0 0-1.414 1.328 1.328 0 0 0-.866-.248H27.93v1.912h1.013a1.318 1.318 0 0 0 .867-.254Z" data-name="Path 62"/><path d="M38.686 35.567v.349h-2.7v-3.814h2.615v.349h-2.212v1.357h1.972v.343h-1.972v1.416Z" data-name="Path 63"/><path d="M44.39 35.813a1.5 1.5 0 0 1-.6-.359l.158-.311a1.507 1.507 0 0 0 .55.335 2.01 2.01 0 0 0 .708.128 1.294 1.294 0 0 0 .768-.188.579.579 0 0 0 .256-.488.488.488 0 0 0-.139-.365.94.94 0 0 0-.341-.21 5.5 5.5 0 0 0-.561-.161 5.9 5.9 0 0 1-.686-.21 1.127 1.127 0 0 1-.439-.308.818.818 0 0 1-.183-.561.952.952 0 0 1 .153-.526 1.045 1.045 0 0 1 .469-.379 1.92 1.92 0 0 1 .785-.142 2.314 2.314 0 0 1 .64.09 1.842 1.842 0 0 1 .542.248l-.136.321a1.883 1.883 0 0 0-.512-.237 1.914 1.914 0 0 0-.534-.079 1.233 1.233 0 0 0-.755.193.6.6 0 0 0-.253.5.5.5 0 0 0 .139.368.905.905 0 0 0 .349.213q.209.074.564.161a5.686 5.686 0 0 1 .678.2 1.115 1.115 0 0 1 .439.305.809.809 0 0 1 .18.553.939.939 0 0 1-.155.526 1.044 1.044 0 0 1-.477.376 1.99 1.99 0 0 1-.79.139 2.447 2.447 0 0 1-.817-.132Z" data-name="Path 64"/><path d="M55.218 32.103v3.814h-.4v-1.76h-2.387v1.76h-.4v-3.814h.4v1.7h2.387v-1.7Z" data-name="Path 65"/><path d="M63.378 34.898h-2.125l-.458 1.019h-.417l1.744-3.814h.4l1.744 3.814h-.425Zm-.147-.327-.915-2.049-.915 2.049Z" data-name="Path 66"/><path d="M71.986 32.452a1.314 1.314 0 0 1 0 1.915 1.732 1.732 0 0 1-1.144.346h-1.024v1.2h-.4v-3.814h1.427a1.724 1.724 0 0 1 1.141.353Zm-.289 1.659a.858.858 0 0 0 .3-.7.87.87 0 0 0-.3-.711 1.329 1.329 0 0 0-.866-.248h-1.013v1.907h1.013a1.329 1.329 0 0 0 .866-.248Z" data-name="Path 67"/><path d="M77.794 32.103h.4v3.814h-.4Z" data-name="Path 68"/><path d="M87.15 32.103v3.814h-.333l-2.452-3.1v3.1h-.4v-3.814h.332l2.457 3.095v-3.095Z" data-name="Path 69"/><path d="M95.601 34.01h.387v1.455a1.864 1.864 0 0 1-.632.36 2.35 2.35 0 0 1-.768.125 2.107 2.107 0 0 1-1.03-.251 1.849 1.849 0 0 1-.719-.695 2.022 2.022 0 0 1 0-1.989 1.85 1.85 0 0 1 .719-.695 2.122 2.122 0 0 1 1.035-.251 2.231 2.231 0 0 1 .8.139 1.592 1.592 0 0 1 .616.411l-.251.256a1.567 1.567 0 0 0-1.15-.447 1.713 1.713 0 0 0-.836.2 1.5 1.5 0 0 0-.586.567 1.573 1.573 0 0 0-.213.809 1.556 1.556 0 0 0 .213.806 1.534 1.534 0 0 0 .583.567 1.679 1.679 0 0 0 .834.207 1.661 1.661 0 0 0 1-.294Z" data-name="Path 70"/><path d="M107.6 32.103h1.553a2.269 2.269 0 0 1 1.068.242 1.769 1.769 0 0 1 .719.676 2.038 2.038 0 0 1 0 1.978 1.771 1.771 0 0 1-.719.676 2.271 2.271 0 0 1-1.068.242H107.6Zm1.531 3.465a1.847 1.847 0 0 0 .877-.2 1.444 1.444 0 0 0 .583-.55 1.684 1.684 0 0 0 0-1.618 1.445 1.445 0 0 0-.583-.55 1.851 1.851 0 0 0-.877-.2h-1.128v3.117Z" data-name="Path 71"/><path d="M116.624 32.103h.4v3.814h-.4Z" data-name="Path 72"/><path d="M125.478 34.01h.387v1.455a1.865 1.865 0 0 1-.632.36 2.351 2.351 0 0 1-.768.125 2.107 2.107 0 0 1-1.03-.251 1.848 1.848 0 0 1-.719-.695 2.02 2.02 0 0 1 0-1.989 1.849 1.849 0 0 1 .719-.695 2.122 2.122 0 0 1 1.035-.251 2.234 2.234 0 0 1 .8.139 1.594 1.594 0 0 1 .616.411l-.251.256a1.568 1.568 0 0 0-1.15-.447 1.714 1.714 0 0 0-.837.2 1.5 1.5 0 0 0-.586.567 1.573 1.573 0 0 0-.213.809 1.557 1.557 0 0 0 .213.806 1.532 1.532 0 0 0 .583.567 1.68 1.68 0 0 0 .834.207 1.661 1.661 0 0 0 1-.294Z" data-name="Path 73"/><path d="M131.527 32.103h.4v3.814h-.4Z" data-name="Path 74"/><path d="M138.436 32.452h-1.34v-.349h3.084v.349h-1.34v3.466h-.4Z" data-name="Path 75"/><path d="M147.547 34.898h-2.125l-.458 1.019h-.419l1.743-3.814h.4l1.743 3.814h-.425Zm-.147-.327-.915-2.049-.916 2.049Z" data-name="Path 76"/><path d="M153.584 32.103h.4v3.464h2.136v.349h-2.539Z" data-name="Path 77"/><path d="M167.504 35.813a1.5 1.5 0 0 1-.6-.359l.158-.311a1.511 1.511 0 0 0 .55.335 2.011 2.011 0 0 0 .709.128 1.294 1.294 0 0 0 .768-.188.579.579 0 0 0 .256-.488.488.488 0 0 0-.139-.365.941.941 0 0 0-.341-.21 5.5 5.5 0 0 0-.561-.161 5.908 5.908 0 0 1-.686-.21 1.13 1.13 0 0 1-.439-.308.818.818 0 0 1-.182-.561.951.951 0 0 1 .152-.526 1.046 1.046 0 0 1 .469-.379 1.92 1.92 0 0 1 .785-.142 2.313 2.313 0 0 1 .64.09 1.841 1.841 0 0 1 .542.248l-.136.321a1.88 1.88 0 0 0-.512-.237 1.915 1.915 0 0 0-.534-.079 1.234 1.234 0 0 0-.755.193.6.6 0 0 0-.253.5.5.5 0 0 0 .139.368.909.909 0 0 0 .349.213q.21.074.564.161a5.666 5.666 0 0 1 .678.2 1.112 1.112 0 0 1 .439.305.807.807 0 0 1 .18.553.938.938 0 0 1-.155.526 1.043 1.043 0 0 1-.477.376 1.99 1.99 0 0 1-.79.139 2.447 2.447 0 0 1-.818-.132Z" data-name="Path 78"/><path d="M177.714 32.452a1.314 1.314 0 0 1 0 1.915 1.731 1.731 0 0 1-1.144.346h-1.024v1.2h-.4v-3.814h1.428a1.724 1.724 0 0 1 1.14.353Zm-.289 1.659a.858.858 0 0 0 .3-.7.871.871 0 0 0-.3-.711 1.329 1.329 0 0 0-.866-.248h-1.014v1.907h1.014a1.329 1.329 0 0 0 .862-.248Z" data-name="Path 79"/><path d="M185.723 34.898h-2.125l-.458 1.019h-.419l1.743-3.814h.4l1.744 3.814h-.425Zm-.147-.327-.915-2.049-.916 2.049Z" data-name="Path 80"/><path d="M192.337 35.699a1.831 1.831 0 0 1-.714-.695 2.038 2.038 0 0 1 0-1.989 1.829 1.829 0 0 1 .717-.695 2.1 2.1 0 0 1 1.024-.251 2.127 2.127 0 0 1 .785.142 1.635 1.635 0 0 1 .61.414l-.257.256a1.518 1.518 0 0 0-1.128-.452 1.656 1.656 0 0 0-.823.207 1.516 1.516 0 0 0-.581.567 1.655 1.655 0 0 0 0 1.613 1.515 1.515 0 0 0 .581.567 1.655 1.655 0 0 0 .823.207 1.5 1.5 0 0 0 1.128-.458l.257.256a1.652 1.652 0 0 1-.613.417 2.1 2.1 0 0 1-.787.144 2.078 2.078 0 0 1-1.022-.25Z" data-name="Path 81"/><path d="M202.843 35.567v.349h-2.7v-3.814h2.615v.349h-2.212v1.357h1.973v.343h-1.973v1.416Z" data-name="Path 82"/></g><path fill="url(#a)" d="M408.152 429.917h15.353v5h-15.353Zm0 14.647h15.353v-5h-15.353Zm0 9.386h15.353v-5h-15.353Zm57.57-24.033v5h15.353v-5Zm0 14.647h15.353v-5h-15.353Zm0 9.386h15.353v-5h-15.353Zm-92.627 0h4.969v-24.171H373.1Zm-103.876-23.6H251v5h18.219Zm-11.594 23.6h4.969v-15.725h-4.969Zm19.451-23.6-9.109 23.6h5.8l6.073-16.382 6.073 16.382h6.073l-9.385-23.6Zm16.177 11.107c0 11.662 12.008 12.495 12.008 12.495V448.4s-6.763-.278-6.625-6.942 6.625-6.525 6.625-6.525v-5.275s-12.008.136-12.008 11.798Zm43.57.417s-.276 6.8-6.9 6.664-6.487-6.664-6.487-6.664h-.036v-12.219h-5.21v12.217s.138 12.078 11.732 12.078 12.422-12.078 12.422-12.078v-.972h-5.521Zm25.917 3.193-11.594-15.271h-5.521V440.9h5.245v-2.36l11.87 15.41h4.969v-24.156h-4.969Zm30.155 1.388-6.487-16.521h-5.521l8.971 24.018h5.8l9.109-24.018h-5.521Zm48.875-7.219a9.265 9.265 0 0 0-7.039-9.3h-7.039v5h5.935a3.384 3.384 0 0 1 2.9 3.332c0 2.915-3.036 3.679-3.036 3.679h-5.8v5.206l6.9 6.8h7.177l-7.039-6.942s7.04-1.111 7.04-7.777Zm12.946.018h-2.978a1.729 1.729 0 0 1-1.844-1.767 1.572 1.572 0 0 1 1.772-1.634l1.542.032v-5.612l-1.528.017c-2.595.029-7.5 1.563-7.5 7.165 0 5.55 4.863 7.286 7.435 7.428h2.978a1.729 1.729 0 0 1 1.844 1.767 1.57 1.57 0 0 1-1.76 1.634h-.012l-1.542-.032v5.612l1.528-.017c2.595-.029 7.5-1.563 7.5-7.165-.001-5.552-4.864-7.287-7.436-7.43Z" data-name="Path 83" transform="translate(-251 -429.655)"/></g></svg>